<svg width="32" height="31" viewBox="0 0 32 31" fill="none" xmlns="http://www.w3.org/2000/svg">
<g id="crown-svgrepo-com 1">
<g id="Group">
<g id="Group_2">
<path id="Vector" fill-rule="evenodd" clip-rule="evenodd" d="M26.2981 28.6841C26.2981 29.4554 25.5132 30.0846 24.5438 30.0846H9.31929C8.34988 30.0846 7.56494 29.4554 7.56494 28.6841V27.8635C7.56494 27.094 8.34988 26.4648 9.31929 26.4648H24.5438C25.5132 26.4648 26.2981 27.094 26.2981 27.8635V28.6841Z" fill="#E2BC6F"/>
<path id="Vector_2" fill-rule="evenodd" clip-rule="evenodd" d="M25.3458 24.5794H8.55901L4.55713 10.695L6.70489 9.40216L12.3727 17.154L15.7082 6.45898H18.3774L21.3778 17.8013L27.3788 9.40216L29.3477 10.695L25.3458 24.5794Z" fill="#E2BC6F"/>
<path id="Vector_3" d="M30.0575 8.08992C31.0638 8.08992 31.8796 7.29963 31.8796 6.32475C31.8796 5.34987 31.0638 4.55957 30.0575 4.55957C29.0511 4.55957 28.2354 5.34987 28.2354 6.32475C28.2354 7.29963 29.0511 8.08992 30.0575 8.08992Z" fill="#E2BC6F"/>
<path id="Vector_4" d="M16.8732 4.42787C17.8754 4.42787 18.6878 3.64084 18.6878 2.66999C18.6878 1.69914 17.8754 0.912109 16.8732 0.912109C15.871 0.912109 15.0586 1.69914 15.0586 2.66999C15.0586 3.64084 15.871 4.42787 16.8732 4.42787Z" fill="#E2BC6F"/>
<path id="Vector_5" d="M3.73268 8.11181C4.7546 8.11181 5.58303 7.31661 5.58303 6.33569C5.58303 5.35477 4.7546 4.55957 3.73268 4.55957C2.71076 4.55957 1.88232 5.35477 1.88232 6.33569C1.88232 7.31661 2.71076 8.11181 3.73268 8.11181Z" fill="#E2BC6F"/>
</g>
</g>
</g>
</svg>
